<?xml version="1.0" encoding="utf-8"?>
<!DOCTYPE svg PUBLIC "-//W3C//DTD SVG 1.1//EN" "http://www.w3.org/Graphics/SVG/1.1/DTD/svg11.dtd" [
	<!ENTITY ns_flows "http://ns.adobe.com/Flows/1.0/">
]>
<svg version="1.1"
	 xmlns="http://www.w3.org/2000/svg" xmlns:xlink="http://www.w3.org/1999/xlink" xmlns:a="http://ns.adobe.com/AdobeSVGViewerExtensions/3.0/"
	 x="0px" y="0px" width="302px" height="302px" viewBox="0 0 302 302" enable-background="new 0 0 302 302" xml:space="preserve">
<defs>
</defs>
<rect fill="#770082" width="302" height="302"/>
<path fill="#FFFFFF" d="M201.7,55.7h35L215.5,151c-4.1,18.1-6.9,29.2-8.4,33.3c5.5,25.2,13.4,37.9,23.9,37.9
	c12.3,0,18.7-8.5,19.1-25.5h7.4c-0.4,15.9-3.3,28.8-8.7,38.6c-5.4,9.8-12.5,14.7-21.3,14.7c-7.3,0-12.7-3-16.3-8.8
	c-3.6-5.9-7.4-18-11.5-36.2c-14.3,30-37.6,45.1-70,45.1c-22.1,0-39.6-8.6-52.7-25.8c-13-17.2-19.6-41.9-19.6-74
	c0-31.6,7.1-56.1,21.4-73.7c14.3-17.6,31.4-26.3,51.4-26.3c14.1,0,25.7,5,34.8,15c9.1,10,17.1,26.3,24.1,49L201.7,55.7z
	 M183.6,136.4c-6.5-22.1-13.7-39.3-21.6-51.8C154,72.2,144.5,66,133.3,66c-25.1,0-37.7,29.4-37.7,88.1c0,55.7,12,83.6,36,83.6
	c20.9,0,36.3-24.6,46.3-73.7L183.6,136.4z"/>
<text transform="matrix(1 0 0 1 252.666 272.334)" fill="#FFFFFF" font-family="'TimesNewRomanPSMT'" font-size="64">2</text>
</svg>
